500 0 1 0                                           
26 Datakit CrossCadWare V18.4 2    24 Wed Jan  2 02:34:07 2019 
1 9.9999999999999995e-007 1e-010
-0 body $1 $2 $-1 $-1 #
-1 string_attrib-name_attrib-gen-attrib $-1 $-1 $-1 $0 keep keep_kept ignore 17 ATTRIB_XACIS_NAME 6 Part 1 #
-2 lump $-1 $-1 $3 $0 #
-3 shell $-1 $-1 $-1 $4 $-1 $2 #
-4 face $5 $6 $22 $3 $-1 $16 forward single #
-5 rgb_color-st-attrib $-1 $-1 $-1 $4 0.615686 0.811765 0.929412 #
-6 face $7 $8 $23 $3 $-1 $17 reversed single #
-7 rgb_color-st-attrib $-1 $-1 $-1 $6 0.615686 0.811765 0.929412 #
-8 face $9 $10 $24 $3 $-1 $18 reversed single #
-9 rgb_color-st-attrib $-1 $-1 $-1 $8 0.615686 0.811765 0.929412 #
-10 face $11 $12 $25 $3 $-1 $19 forward single #
-11 rgb_color-st-attrib $-1 $-1 $-1 $10 0.615686 0.811765 0.929412 #
-12 face $13 $14 $26 $3 $-1 $20 forward single #
-13 rgb_color-st-attrib $-1 $-1 $-1 $12 0.615686 0.811765 0.929412 #
-14 face $15 $-1 $27 $3 $-1 $21 reversed single #
-15 rgb_color-st-attrib $-1 $-1 $-1 $14 0.615686 0.811765 0.929412 #
-16 plane-surface $-1 12.7000000000 -0.0000000000 25.4000000000 1.0000000000 -0.0000000000 0.0000000000 0.0000000000 1.0000000000 0.0000000000 forward_v I I I I #
-17 plane-surface $-1 0.0000000000 12.7000000000 25.4000000000 0.0000000000 -1.0000000000 0.0000000000 0.0000000000 0.0000000000 -1.0000000000 forward_v I I I I #
-18 plane-surface $-1 -12.7000000000 -0.0000000000 25.4000000000 1.0000000000 -0.0000000000 0.0000000000 0.0000000000 1.0000000000 0.0000000000 forward_v I I I I #
-19 plane-surface $-1 0.0000000000 -12.7000000000 25.4000000000 0.0000000000 -1.0000000000 0.0000000000 0.0000000000 0.0000000000 -1.0000000000 forward_v I I I I #
-20 plane-surface $-1 0.0000000000 -0.0000000000 25.4000000000 0.0000000000 0.0000000000 1.0000000000 1.0000000000 0.0000000000 0.0000000000 forward_v I I I I #
-21 plane-surface $-1 0.0000000000 -0.0000000000 0.0000000000 0.0000000000 0.0000000000 1.0000000000 1.0000000000 0.0000000000 0.0000000000 forward_v I I I I #
-22 loop $-1 $-1 $28 $4 #
-23 loop $-1 $-1 $32 $6 #
-24 loop $-1 $-1 $36 $8 #
-25 loop $-1 $-1 $40 $10 #
-26 loop $-1 $-1 $44 $12 #
-27 loop $-1 $-1 $48 $14 #
-28 coedge $-1 $29 $31 $48 $52 reversed $22 $-1 #
-29 coedge $-1 $30 $28 $35 $53 reversed $22 $-1 #
-30 coedge $-1 $31 $29 $44 $54 forward $22 $-1 #
-31 coedge $-1 $28 $30 $41 $55 forward $22 $-1 #
-32 coedge $-1 $33 $35 $51 $56 forward $23 $-1 #
-33 coedge $-1 $34 $32 $39 $57 reversed $23 $-1 #
-34 coedge $-1 $35 $33 $45 $58 reversed $23 $-1 #
-35 coedge $-1 $32 $34 $29 $53 forward $23 $-1 #
-36 coedge $-1 $37 $39 $50 $59 forward $24 $-1 #
-37 coedge $-1 $38 $36 $43 $60 reversed $24 $-1 #
-38 coedge $-1 $39 $37 $46 $61 reversed $24 $-1 #
-39 coedge $-1 $36 $38 $33 $57 forward $24 $-1 #
-40 coedge $-1 $41 $43 $49 $62 reversed $25 $-1 #
-41 coedge $-1 $42 $40 $31 $55 reversed $25 $-1 #
-42 coedge $-1 $43 $41 $47 $63 forward $25 $-1 #
-43 coedge $-1 $40 $42 $37 $60 forward $25 $-1 #
-44 coedge $-1 $45 $47 $30 $54 reversed $26 $-1 #
-45 coedge $-1 $46 $44 $34 $58 forward $26 $-1 #
-46 coedge $-1 $47 $45 $38 $61 forward $26 $-1 #
-47 coedge $-1 $44 $46 $42 $63 reversed $26 $-1 #
-48 coedge $-1 $49 $51 $28 $52 forward $27 $-1 #
-49 coedge $-1 $50 $48 $40 $62 forward $27 $-1 #
-50 coedge $-1 $51 $49 $36 $59 reversed $27 $-1 #
-51 coedge $-1 $48 $50 $32 $56 reversed $27 $-1 #
-52 edge $-1 $65 0.0000000000 $67 25.4000000000 $28 $64 forward 7 unknown #
-53 edge $-1 $70 0.0000000000 $65 25.4000000000 $29 $69 forward 7 unknown #
-54 edge $-1 $70 0.0000000000 $73 25.4000000000 $30 $72 forward 7 unknown #
-55 edge $-1 $73 0.0000000000 $67 25.4000000000 $31 $75 forward 7 unknown #
-56 edge $-1 $65 0.0000000000 $77 25.4000000000 $32 $76 forward 7 unknown #
-57 edge $-1 $80 0.0000000000 $77 25.4000000000 $33 $79 forward 7 unknown #
-58 edge $-1 $70 0.0000000000 $80 25.4000000000 $34 $82 forward 7 unknown #
-59 edge $-1 $77 0.0000000000 $84 25.4000000000 $36 $83 forward 7 unknown #
-60 edge $-1 $87 0.0000000000 $84 25.4000000000 $37 $86 forward 7 unknown #
-61 edge $-1 $80 0.0000000000 $87 25.4000000000 $38 $89 forward 7 unknown #
-62 edge $-1 $67 0.0000000000 $84 25.4000000000 $40 $90 forward 7 unknown #
-63 edge $-1 $73 0.0000000000 $87 25.4000000000 $42 $91 forward 7 unknown #
-64 straight-curve $-1 12.700000000000001 12.699999999999999 0.000000000000000 -0.000000000000000 -1.000000000000000 0.000000000000000 I I #
-65 vertex $-1 $52 $66 #
-66 point $-1 12.699999999999999 12.699999999999999 0.000000000000000 #
-67 vertex $-1 $52 $68 #
-68 point $-1 12.699999999999999 -12.699999999999999 0.000000000000000 #
-69 straight-curve $-1 12.699999999999999 12.699999999999999 25.399999999999999 0.000000000000000 0.000000000000000 -1.000000000000000 I I #
-70 vertex $-1 $53 $71 #
-71 point $-1 12.699999999999999 12.699999999999999 25.399999999999999 #
-72 straight-curve $-1 12.700000000000001 12.699999999999999 25.399999999999999 -0.000000000000000 -1.000000000000000 0.000000000000000 I I #
-73 vertex $-1 $54 $74 #
-74 point $-1 12.699999999999999 -12.699999999999999 25.399999999999999 #
-75 straight-curve $-1 12.699999999999999 -12.699999999999999 25.399999999999999 0.000000000000000 0.000000000000000 -1.000000000000000 I I #
-76 straight-curve $-1 12.699999999999999 12.699999999999999 0.000000000000000 -1.000000000000000 0.000000000000000 0.000000000000000 I I #
-77 vertex $-1 $56 $78 #
-78 point $-1 -12.699999999999999 12.699999999999999 0.000000000000000 #
-79 straight-curve $-1 -12.699999999999999 12.699999999999999 25.399999999999999 0.000000000000000 0.000000000000000 -1.000000000000000 I I #
-80 vertex $-1 $57 $81 #
-81 point $-1 -12.699999999999999 12.699999999999999 25.399999999999999 #
-82 straight-curve $-1 12.699999999999999 12.699999999999999 25.399999999999999 -1.000000000000000 0.000000000000000 0.000000000000000 I I #
-83 straight-curve $-1 -12.699999999999998 12.699999999999999 0.000000000000000 -0.000000000000000 -1.000000000000000 0.000000000000000 I I #
-84 vertex $-1 $59 $85 #
-85 point $-1 -12.699999999999999 -12.699999999999999 0.000000000000000 #
-86 straight-curve $-1 -12.699999999999999 -12.699999999999999 25.399999999999999 0.000000000000000 0.000000000000000 -1.000000000000000 I I #
-87 vertex $-1 $60 $88 #
-88 point $-1 -12.699999999999999 -12.699999999999999 25.399999999999999 #
-89 straight-curve $-1 -12.699999999999998 12.699999999999999 25.399999999999999 -0.000000000000000 -1.000000000000000 0.000000000000000 I I #
-90 straight-curve $-1 12.699999999999999 -12.699999999999999 0.000000000000000 -1.000000000000000 0.000000000000000 0.000000000000000 I I #
-91 straight-curve $-1 12.699999999999999 -12.699999999999999 25.399999999999999 -1.000000000000000 0.000000000000000 0.000000000000000 I I #
End-of-ACIS-data 