**ABCDEFGHIJKLMNOPQRSTUVWXYZabcdefghijklmnopqrstuvwxyz**************************
**PARASOLID !"#$%&'()*+,-./:;<=>?@[\]^_`{|}~0123456789**************************
**PART1;
MC=unknown;
MC_MODEL=unknown;
MC_ID=unknown;
OS=unknown;
OS_RELEASE=unknown;
FRU=Parasolid 31.0.249;
APPL=Onshape;
SITE=unknown;
USER=unknown;
FORMAT=text;
GUISE=transmit;
KEY=BTGapi::writeModels_.xmt;
FILE=BTGapi::writeModels_.xmt;
DATE=2019-01-02T02:34:18 (UTC);
**PART2;
SCH=SCH_3100249_31001;
USFLD_SIZE=0;
**PART3;
**END_OF_HEADER*****************************************************************
T51 : TRANSMIT FILE created by modeller version 310024923 SCH_3100249_31001_1300
6215 0 12 34 CCCCCCI4 mesh1006 0 I8 polyline1008 0 CCCCCCCDI5 owner1040 0 CCCCCC
I13 boundary_mesh1006 0 I17 boundary_polyline1008 0 CCCA16 index_map_offset0 0 1
 dA9 index_map82 0 A17 node_id_index_map82 0 A20 schema_embedding_map82 0 A5 chi
ld12 0 A14 lowest_node_id0 0 1 dA16 mesh_offset_data206 0 Z1 187 2 3 0 0 0 0 0 0
 1e3 1e-8 0 4 0 1 0 1 1 5 6 7 8 0 0 9 10 11 0 0 0 0 0 0 0 81 255 1 2 181 12 1 13
 0 0 0 14 70 11 CI9 list_type0 0 1 uI10 notransmit0 0 1 lCCCDCCDI12 finger_index
0 0 1 dI12 finger_block1012 0 CZ3 0 4 T1 0 0 5 20 1 15 15 13 255 5 137 0 1 0 16
 0 0 17 0 50 255 6 132 0 16 18 0 0 +.0127 -1387778780781446e-32 .0254 1 -6829619
98416066e-31 0 682961998416066e-31 1 0 30 255 7 136 0 10 19 0 0 +.0127 .0127 .02
54 0 0 -1 29 255 8 113 0 20 21 0 .0127 -.0127 0 19 8 CCCCCCCA5 owner12 0 Z9 48 0
 1 17 0 22 V0 16 255 10 120 23 ?24 0 25 7 0 0 1 18 255 11 42 26 27 0 28 29 ?1 81
 1 26 157 30 11 0 0 31 32 33 17 255 27 0 34 35 36 11 37 38 0 39 -18 28 37 40 41
 11 42 43 ?1 29 29 44 0 11 43 44 .0127 -.0127 .0254 29 43 39 0 28 45 29 -.0127 -
.0127 .0254 29 44 116 0 46 29 47 .0127 .0127 0 18 46 104 48 24 49 0 44 ?1 29 47
 115 0 49 44 21 -.0127 .0127 0 18 49 100 50 51 52 46 47 ?1 29 21 114 0 52 47 8 -
.0127 -.0127 0 18 52 96 32 53 20 49 21 ?1 81 1 32 158 30 52 0 0 26 40 54 17 53 0
 34 36 35 52 55 56 0 57 +18 20 92 31 37 58 52 8 ?1 81 1 31 156 30 20 0 0 59 26 6
0 17 37 0 61 62 39 20 27 38 0 63 +18 58 27 64 65 42 20 66 ?1 81 1 64 153 30 58 0
 0 48 50 67 17 65 0 61 39 62 58 24 10 0 68 -18 42 32 59 69 28 58 45 ?1 29 66 29
 0 58 0 45 .0127 .0127 .0254 29 45 34 0 42 66 43 -.0127 .0127 .0254 81 1 59 155
 30 42 0 0 50 31 70 17 69 0 71 41 72 42 68 73 0 74 +15 255 71 6 0 72 75 0 17 41
 0 71 76 69 28 77 78 0 55 +17 72 0 71 69 76 58 39 79 0 0 -17 68 0 80 24 74 58 69
 73 0 72 -16 73 12 81 ?69 78 79 82 0 0 1 17 74 0 80 68 51 42 83 25 0 77 -15 80 1
25 0 51 84 0 17 51 0 80 74 24 49 85 86 0 83 +17 83 0 87 57 77 49 74 25 0 88 +16
 25 119 89 ?83 10 56 19 0 0 1 17 77 0 87 83 55 42 41 78 0 0 -15 87 123 0 57 90 0
 17 55 0 87 77 57 28 53 56 0 35 -16 78 17 91 ?41 92 73 93 0 0 1 81 1 91 171 30 7
8 0 0 94 95 96 16 92 22 97 ?35 38 78 98 0 0 1 30 93 19 0 78 82 98 0 +-.0127 -138
7778780781446e-32 .0254 -682961998416066e-31 -1 0 30 82 14 0 73 99 93 0 +2602085
21396521e-32 .0127 .0254 -1 0 0 30 98 24 0 92 93 100 0 +3469446951953615e-33 -.0
127 .0254 -1 0 0 30 100 112 0 101 98 102 0 +.0127 -1387778780781446e-32 0 -68296
1998416066e-31 -1 0 16 101 88 103 ?63 86 0 100 0 0 1 30 102 111 0 86 100 104 0 +
260208521396521e-32 .0127 0 -1 0 0 16 86 84 105 ?51 106 101 102 0 0 1 30 104 110
 0 106 102 107 0 +-.0127 -1387778780781446e-32 0 -682961998416066e-31 -1 0 16 10
6 80 94 ?57 108 86 104 0 0 1 30 107 109 0 108 104 109 0 +3469446951953615e-33 -.
0127 0 -1 0 0 16 108 76 110 ?111 79 106 107 0 0 1 30 109 133 0 38 107 112 0 +.01
27 -.0127 .0254 0 0 -1 16 38 117 113 ?37 56 92 109 0 0 1 30 112 134 0 56 109 19
 0 +-.0127 -.0127 .0254 0 0 -1 16 56 118 114 ?53 25 38 112 0 0 1 30 19 135 0 25
 112 7 0 +-.0127 .0127 .0254 0 0 -1 81 1 114 163 30 56 0 0 113 105 115 80 255 1
 30 116 117 9000 0 0 0 0 3 6 0 0 0 FFTFTFTTFFFFFF1 81 1 113 162 30 38 0 0 89 114
 118 81 1 105 164 30 86 0 0 114 81 119 82 255 3 115 6 3 1 81 1 81 165 30 73 0 0
 105 110 120 82 3 119 6 4 1 81 1 110 166 30 108 0 0 81 97 121 82 3 120 6 5 1 81
 1 97 167 30 92 0 0 110 103 122 82 3 121 6 6 1 81 1 103 168 30 101 0 0 97 123 12
4 82 3 122 6 7 1 81 1 123 169 30 79 0 0 103 94 125 82 3 124 6 8 1 16 79 7 123 ?3
9 73 108 99 0 0 1 81 1 94 170 30 106 0 0 123 91 126 82 3 125 6 9 1 82 3 126 6 10
 1 17 39 0 61 37 65 11 72 79 0 76 +30 99 9 0 79 0 82 0 +.0127 -1387778780781446e
-32 .0254 -682961998416066e-31 -1 0 15 61 127 0 62 16 0 17 76 0 71 72 41 11 35 9
2 0 0 -17 35 0 34 53 27 28 76 92 0 0 +15 34 121 0 36 127 0 17 36 0 34 27 53 20 1
11 108 0 0 -14 255 127 122 128 ?75 90 34 5 129 +0 0 75 90 22 81 1 128 185 130 12
7 131 0 132 133 134 14 75 1 133 ?135 127 71 5 136 +0 0 135 127 22 14 90 124 132
 ?127 84 87 5 137 -0 0 127 84 22 50 129 129 0 127 138 137 0 +3469446951953615e-3
3 -.0127 .0254 0 -1 0 0 0 -1 13 22 49 0 0 0 0 0 0 9 16 14 16 128 139 ?84 0 61 5
 6 +0 0 84 0 22 81 1 139 182 130 16 140 0 0 141 142 14 84 126 141 ?90 16 80 5 18
 -0 0 90 16 22 81 1 141 183 130 84 95 0 139 132 143 50 18 131 0 84 137 6 0 +2602
08521396521e-32 .0127 .0254 0 -1 0 0 0 -1 50 137 130 0 90 129 18 0 +-.0127 -1387
778780781446e-32 .0254 1 -682961998416066e-31 0 682961998416066e-31 1 0 80 1 130
 0 144 8001 0 0 0 0 3 5 0 0 0 FFFFTFTFFFFFFF2 81 1 95 172 30 84 0 141 91 145 146
 81 1 132 184 130 90 147 0 141 128 148 83 255 3 143 .615686274509804 .8117647058
82353 .929411764705882 81 1 147 177 30 90 0 132 140 149 150 83 3 148 .6156862745
09804 .811764705882353 .929411764705882 81 1 140 176 30 16 0 139 131 147 151 81
 1 149 178 30 1 0 152 147 0 153 82 3 150 6 5 2 81 1 152 179 154 1 149 13 0 0 155
 82 3 153 6 0 3 80 1 154 156 157 8038 0 0 0 0 0 0 0 0 0 TTTTTTTTTTTTTF10 81 1 13
 180 156 1 152 2 0 0 158 98 255 6 155 80 97 114 116 32 49 80 1 156 159 160 8017
 0 0 0 0 0 0 0 0 0 TTTTTTTTTTTTTF3 84 255 6 158 Part 179 255 13 160 SDL/TYSA_NAM
E79 14 157 SDL/TYSA_UNAME81 1 131 175 30 127 0 128 161 140 162 82 3 151 6 4 2 81
 1 161 174 30 75 0 133 145 131 163 82 3 162 6 3 2 81 1 133 186 130 75 161 0 128
 164 165 81 1 145 173 30 135 0 164 95 161 166 82 3 163 6 2 2 14 135 68 164 ?0 75
 167 5 138 -0 0 0 75 22 81 1 164 187 130 135 145 0 133 0 168 82 3 166 6 1 2 83 3
 168 .615686274509804 .811764705882353 .929411764705882 15 167 75 0 63 135 0 50
 138 108 0 135 136 129 0 +3469446951953615e-33 -1387778780781446e-32 0 0 0 1 1 0
 0 50 136 3 0 75 0 138 0 +3469446951953615e-33 -1387778780781446e-32 .0254 0 0 1
 1 0 0 17 63 0 167 111 85 20 62 101 0 36 +17 111 0 167 88 63 52 36 108 0 0 +17 8
5 0 167 63 88 46 51 86 0 62 -17 62 0 61 65 37 46 63 101 0 0 -17 88 0 167 85 111
 49 57 106 0 0 -17 57 0 87 55 83 52 88 106 0 111 +83 3 165 .615686274509804 .811
764705882353 .929411764705882 82 3 146 6 0 2 79 15 144 SDL/TYSA_COLOUR83 3 142 .
615686274509804 .811764705882353 .929411764705882 83 3 134 .615686274509804 .811
764705882353 .929411764705882 81 1 89 161 30 25 0 0 23 113 169 82 3 118 6 2 1 81
 1 23 160 30 10 0 0 40 89 170 82 3 169 6 1 1 81 1 40 159 30 28 0 0 32 23 171 82
 3 170 6 0 1 82 3 171 6 7 0 79 9 117 BTI/DetId82 3 96 6 11 1 17 24 0 80 51 68 46
 65 10 0 85 +81 1 50 154 30 49 0 0 64 59 172 82 3 70 6 3 0 82 3 172 6 2 0 81 1 4
8 152 30 46 0 0 0 64 173 82 3 67 6 1 0 82 3 173 6 0 0 82 3 60 6 4 0 82 3 54 6 6
 0 82 3 33 6 5 0 19 17 138 0 1 0 9 5 S0 74 4 CI16 index_map_offset0 0 1 dCCZ20 1
5 5 0 0 149 152 13 2 164 0 0 0 0 0 0 0 0 0 0 0 0 0 0 0 80 1 12 130 174 8040 0 0
 0 0 3 5 0 0 0 TTTFFFFFFFFFFF2 83 3 14 .615686274509804 .811764705882353 .929411
764705882 79 17 174 SDL/TYSA_COLOUR_21 0 
